<?xml version="1.0" encoding="UTF-8" standalone="no"?>
<svg
    viewBox="0 0 51.141573 26.580677"
    version="1.1"
    xmlns="http://www.w3.org/2000/svg">
    <g transform="translate(-81.684711,-28.766455)">
        <path
            style="fill:currentColor;stroke-width:0.169333"
            d="m 96.40508,50.635427 c -2.422342,-0.306674 -4.104835,-2.113922 -5.00291,-5.373873 -0.478178,-1.735755 -0.522835,-6.425913 -0.07814,-8.206895 0.605331,-2.424334 1.773396,-4.134815 3.413896,-4.999209 0.749665,-0.395006 1.049113,-0.449798 2.462132,-0.450513 1.340117,-6.77e-4 1.741381,0.06456 2.403664,0.390774 1.616638,0.796295 2.812978,2.496449 3.477828,4.942413 0.42537,1.564945 0.42359,6.713216 -0.003,8.297334 -1.06,3.937442 -3.382422,5.816641 -6.673605,5.399969 z m 2.390336,-3.242891 c 0.875584,-0.91482 1.243024,-2.055117 1.460384,-4.53209 0.18538,-2.112498 -0.01,-4.958221 -0.438732,-6.40327 -0.846671,-2.851056 -3.83117,-3.201632 -4.948622,-0.581293 -0.566644,1.328732 -0.771227,3.161419 -0.671158,6.012297 0.155357,4.425909 1.067496,6.223544 3.158795,6.225312 0.660564,5.08e-4 0.829987,-0.08431 1.439333,-0.720956 z m 10.293184,1.610589 0.0495,-1.312333 2.07433,-0.04755 2.07433,-0.04754 v -6.090789 -6.090788 h -1.69333 -1.69333 v -1.009473 -1.009474 l 0.71966,-0.185385 c 1.28574,-0.331205 1.89086,-0.544152 2.70371,-0.951452 0.6279,-0.314632 1.07149,-0.400216 2.07433,-0.400216 h 1.27563 v 7.874 7.874001 h 1.778 1.778 v 1.354667 1.354666 h -5.59512 -5.59513 z"/>
        <path
            style="fill:#7da4a6"
            d="m 81.817217,29.348789 5.689015,0.01006 -0.01,1.75746 -3.211398,-0.04972 0.03097,21.964647 3.156128,-0.01696 0.0031,1.818206 -5.616591,-0.02992 z"/>
        <path
            style="fill:#7da4a6"
            d="m 123.98184,29.626964 2.37201,-0.701791 6.32558,13.071795 -6.32912,13.189238 -2.37904,-0.756563 6.02517,-12.341793 z"/>
    </g>
</svg>
