<?xml version="1.0" encoding="UTF-8"?>
<svg width="120" height="120" version="1.1" viewBox="0 0 120 120" xmlns="http://www.w3.org/2000/svg" xmlns:cc="http://creativecommons.org/ns#" xmlns:dc="http://purl.org/dc/elements/1.1/" xmlns:rdf="http://www.w3.org/1999/02/22-rdf-syntax-ns#" xmlns:xlink="http://www.w3.org/1999/xlink"><defs><marker id="b" overflow="visible" markerHeight="3.4181819" markerWidth="4.6999998" orient="auto-start-reverse" preserveAspectRatio="xMidYMid" viewBox="0 0 7.7 5.6"><path id="c" transform="scale(.7)" d="m-2-4 11 4-11 4c2-2.33 2-5.66 0-8z" fill="context-stroke" fill-rule="evenodd"/></marker><linearGradient id="a" x1="31.5" x2="88.5" y1="60" y2="60" gradientUnits="userSpaceOnUse"><stop stop-color="#ffb580" offset="0"/><stop stop-color="#8080ff" offset="1"/></linearGradient></defs><g><circle cx="60" cy="60" r="58" fill="#f2e4dc" stroke="#000" stroke-linejoin="bevel" stroke-width="4"/><g transform="matrix(.9964 0 0 1.0001 .21599 -.90155)" fill="#fff6f6" stroke-width="4.007"><path d="m60 32c-28.225 0-50 12-58 28.894 8 16.894 29.775 28.894 58 28.894 28.225 0 50-12 58-28.894-8-16.894-29.775-28.894-58-28.894z" fill="#fff6f6" stroke="#000" stroke-miterlimit="4.2" stroke-width="4.007"/></g><circle cx="60" cy="60" r="27.5" fill="url(#a)" stroke="#000" stroke-linejoin="bevel" stroke-width="2"/></g><ellipse cx="60" cy="60" rx="27.5" ry="9.5" fill="none" stroke="#000" stroke-dasharray="4,2" stroke-linejoin="bevel" stroke-width="2"/><path d="m60 60 10.172-16.658" fill="none" marker-end="url(#b)" stroke="#000" stroke-width="2"/><metadata><rdf:RDF><cc:Work rdf:about=""><cc:license rdf:resource="http://creativecommons.org/licenses/by-nd/4.0/"/><dc:rights><cc:Agent><dc:title>Copyright© 2022 Gesellschaft zur Förderung der angewandten Forschung e.V. acting on behalf of its Fraunhofer Institut für Graphische Datenverarbeitung.</dc:title></cc:Agent></dc:rights></cc:Work><cc:License rdf:about="http://creativecommons.org/licenses/by-nd/4.0/"><cc:permits rdf:resource="http://creativecommons.org/ns#Reproduction"/><cc:permits rdf:resource="http://creativecommons.org/ns#Distribution"/><cc:requires rdf:resource="http://creativecommons.org/ns#Notice"/><cc:requires rdf:resource="http://creativecommons.org/ns#Attribution"/></cc:License></rdf:RDF></metadata></svg>
